<mxfile host="app.diagrams.net" agent="Mozilla/5.0 (Windows NT 10.0; Win64; x64) AppleWebKit/537.36 (KHTML, like Gecko) Chrome/137.0.0.0 Safari/537.36" version="26.2.14">
  <diagram name="Page-1" id="1lz3eXgjwI1IDMT25WqF">
    <mxGraphModel dx="1058" dy="638" grid="0" gridSize="10" guides="1" tooltips="1" connect="1" arrows="1" fold="1" page="1" pageScale="1" pageWidth="850" pageHeight="1100" math="0" shadow="0">
      <root>
        <mxCell id="0" />
        <mxCell id="1" parent="0" />
        <mxCell id="M2xENuGzF6R5AaJIFtvE-1" value="" style="rounded=0;whiteSpace=wrap;html=1;" vertex="1" parent="1">
          <mxGeometry x="300" y="40" width="230" height="210" as="geometry" />
        </mxCell>
        <mxCell id="M2xENuGzF6R5AaJIFtvE-2" value="&lt;font style=&quot;vertical-align: inherit;&quot;&gt;&lt;font style=&quot;vertical-align: inherit;&quot;&gt;网格巡查人员&lt;/font&gt;&lt;/font&gt;" style="shape=umlActor;verticalLabelPosition=bottom;verticalAlign=top;html=1;outlineConnect=0;" vertex="1" parent="1">
          <mxGeometry x="160" y="135" width="30" height="60" as="geometry" />
        </mxCell>
        <mxCell id="M2xENuGzF6R5AaJIFtvE-5" value="AI辅助生成/&lt;div&gt;获取报告&lt;/div&gt;" style="ellipse;whiteSpace=wrap;html=1;" vertex="1" parent="1">
          <mxGeometry x="380" y="85" width="90" height="50" as="geometry" />
        </mxCell>
        <mxCell id="M2xENuGzF6R5AaJIFtvE-7" value="智能巡查管理" style="ellipse;whiteSpace=wrap;html=1;" vertex="1" parent="1">
          <mxGeometry x="370" y="170" width="90" height="50" as="geometry" />
        </mxCell>
        <mxCell id="M2xENuGzF6R5AaJIFtvE-11" value="&lt;div data-docx-has-block-data=&quot;false&quot; data-lark-html-role=&quot;root&quot; data-page-id=&quot;YEhrdIaTvoggZvxtlEtc4QMWnRe&quot;&gt;&lt;div class=&quot;old-record-id-EgNMd8jZPobp9axW8APcuTESnOb&quot;&gt;&lt;strong&gt;博识牌铁路安管脚本&lt;/strong&gt;&lt;/div&gt;&lt;/div&gt;&lt;span class=&quot;lark-record-clipboard&quot; data-lark-record-format=&quot;docx/text&quot; data-lark-record-data=&quot;{&amp;quot;rootId&amp;quot;:&amp;quot;YEhrdIaTvoggZvxtlEtc4QMWnRe&amp;quot;,&amp;quot;text&amp;quot;:{&amp;quot;initialAttributedTexts&amp;quot;:{&amp;quot;text&amp;quot;:{&amp;quot;0&amp;quot;:&amp;quot;博识牌铁路安管脚本&amp;quot;},&amp;quot;attribs&amp;quot;:{&amp;quot;0&amp;quot;:&amp;quot;*0*1+9&amp;quot;}},&amp;quot;apool&amp;quot;:{&amp;quot;numToAttrib&amp;quot;:{&amp;quot;0&amp;quot;:[&amp;quot;author&amp;quot;,&amp;quot;7369065156772184067&amp;quot;],&amp;quot;1&amp;quot;:[&amp;quot;bold&amp;quot;,&amp;quot;true&amp;quot;]},&amp;quot;nextNum&amp;quot;:2}},&amp;quot;type&amp;quot;:&amp;quot;text&amp;quot;,&amp;quot;referenceRecordMap&amp;quot;:{},&amp;quot;extra&amp;quot;:{&amp;quot;channel&amp;quot;:&amp;quot;saas&amp;quot;,&amp;quot;isEqualBlockSelection&amp;quot;:false,&amp;quot;pasteRandomId&amp;quot;:&amp;quot;719aeff2-7f1b-4116-b2ea-c4e05b10d2c9&amp;quot;,&amp;quot;mention_page_title&amp;quot;:{},&amp;quot;external_mention_url&amp;quot;:{}},&amp;quot;isKeepQuoteContainer&amp;quot;:false,&amp;quot;isFromCode&amp;quot;:false,&amp;quot;selection&amp;quot;:[{&amp;quot;id&amp;quot;:34,&amp;quot;type&amp;quot;:&amp;quot;text&amp;quot;,&amp;quot;selection&amp;quot;:{&amp;quot;start&amp;quot;:44,&amp;quot;end&amp;quot;:53},&amp;quot;recordId&amp;quot;:&amp;quot;EgNMd8jZPobp9axW8APcuTESnOb&amp;quot;}],&amp;quot;payloadMap&amp;quot;:{},&amp;quot;isCut&amp;quot;:false}&quot;&gt;&lt;/span&gt;" style="text;html=1;align=center;verticalAlign=middle;whiteSpace=wrap;rounded=0;" vertex="1" parent="1">
          <mxGeometry x="300" y="40" width="110" height="30" as="geometry" />
        </mxCell>
        <mxCell id="M2xENuGzF6R5AaJIFtvE-15" value="" style="endArrow=classic;html=1;rounded=0;entryX=0;entryY=0.5;entryDx=0;entryDy=0;exitX=1;exitY=0.3333333333333333;exitDx=0;exitDy=0;exitPerimeter=0;" edge="1" parent="1" target="M2xENuGzF6R5AaJIFtvE-5" source="M2xENuGzF6R5AaJIFtvE-2">
          <mxGeometry width="50" height="50" relative="1" as="geometry">
            <mxPoint x="190" y="170" as="sourcePoint" />
            <mxPoint x="550" y="290" as="targetPoint" />
          </mxGeometry>
        </mxCell>
        <mxCell id="M2xENuGzF6R5AaJIFtvE-20" value="" style="endArrow=classic;html=1;rounded=0;entryX=0;entryY=0.5;entryDx=0;entryDy=0;exitX=1;exitY=0.3333333333333333;exitDx=0;exitDy=0;exitPerimeter=0;" edge="1" parent="1" target="M2xENuGzF6R5AaJIFtvE-7" source="M2xENuGzF6R5AaJIFtvE-2">
          <mxGeometry width="50" height="50" relative="1" as="geometry">
            <mxPoint x="190" y="100" as="sourcePoint" />
            <mxPoint x="550" y="290" as="targetPoint" />
          </mxGeometry>
        </mxCell>
        <mxCell id="M2xENuGzF6R5AaJIFtvE-21" value="" style="rounded=0;whiteSpace=wrap;html=1;" vertex="1" parent="1">
          <mxGeometry x="282" y="326" width="225" height="240" as="geometry" />
        </mxCell>
        <mxCell id="M2xENuGzF6R5AaJIFtvE-31" value="&lt;div data-docx-has-block-data=&quot;false&quot; data-lark-html-role=&quot;root&quot; data-page-id=&quot;YEhrdIaTvoggZvxtlEtc4QMWnRe&quot;&gt;&lt;div class=&quot;old-record-id-EgNMd8jZPobp9axW8APcuTESnOb&quot;&gt;&lt;strong&gt;博识牌铁路安管脚本&lt;/strong&gt;&lt;/div&gt;&lt;/div&gt;&lt;span class=&quot;lark-record-clipboard&quot; data-lark-record-format=&quot;docx/text&quot; data-lark-record-data=&quot;{&amp;quot;rootId&amp;quot;:&amp;quot;YEhrdIaTvoggZvxtlEtc4QMWnRe&amp;quot;,&amp;quot;text&amp;quot;:{&amp;quot;initialAttributedTexts&amp;quot;:{&amp;quot;text&amp;quot;:{&amp;quot;0&amp;quot;:&amp;quot;博识牌铁路安管脚本&amp;quot;},&amp;quot;attribs&amp;quot;:{&amp;quot;0&amp;quot;:&amp;quot;*0*1+9&amp;quot;}},&amp;quot;apool&amp;quot;:{&amp;quot;numToAttrib&amp;quot;:{&amp;quot;0&amp;quot;:[&amp;quot;author&amp;quot;,&amp;quot;7369065156772184067&amp;quot;],&amp;quot;1&amp;quot;:[&amp;quot;bold&amp;quot;,&amp;quot;true&amp;quot;]},&amp;quot;nextNum&amp;quot;:2}},&amp;quot;type&amp;quot;:&amp;quot;text&amp;quot;,&amp;quot;referenceRecordMap&amp;quot;:{},&amp;quot;extra&amp;quot;:{&amp;quot;channel&amp;quot;:&amp;quot;saas&amp;quot;,&amp;quot;isEqualBlockSelection&amp;quot;:false,&amp;quot;pasteRandomId&amp;quot;:&amp;quot;719aeff2-7f1b-4116-b2ea-c4e05b10d2c9&amp;quot;,&amp;quot;mention_page_title&amp;quot;:{},&amp;quot;external_mention_url&amp;quot;:{}},&amp;quot;isKeepQuoteContainer&amp;quot;:false,&amp;quot;isFromCode&amp;quot;:false,&amp;quot;selection&amp;quot;:[{&amp;quot;id&amp;quot;:34,&amp;quot;type&amp;quot;:&amp;quot;text&amp;quot;,&amp;quot;selection&amp;quot;:{&amp;quot;start&amp;quot;:44,&amp;quot;end&amp;quot;:53},&amp;quot;recordId&amp;quot;:&amp;quot;EgNMd8jZPobp9axW8APcuTESnOb&amp;quot;}],&amp;quot;payloadMap&amp;quot;:{},&amp;quot;isCut&amp;quot;:false}&quot;&gt;&lt;/span&gt;" style="text;html=1;align=center;verticalAlign=middle;whiteSpace=wrap;rounded=0;" vertex="1" parent="1">
          <mxGeometry x="282" y="326" width="110" height="30" as="geometry" />
        </mxCell>
        <mxCell id="M2xENuGzF6R5AaJIFtvE-41" value="BJTU研究人员" style="shape=umlActor;verticalLabelPosition=bottom;verticalAlign=top;html=1;outlineConnect=0;" vertex="1" parent="1">
          <mxGeometry x="181" y="376" width="30" height="60" as="geometry" />
        </mxCell>
        <mxCell id="M2xENuGzF6R5AaJIFtvE-42" value="调用数据获取接口" style="ellipse;whiteSpace=wrap;html=1;" vertex="1" parent="1">
          <mxGeometry x="330" y="394" width="107" height="50" as="geometry" />
        </mxCell>
        <mxCell id="M2xENuGzF6R5AaJIFtvE-43" value="设计风险评估算法" style="ellipse;whiteSpace=wrap;html=1;" vertex="1" parent="1">
          <mxGeometry x="330" y="482" width="105" height="50" as="geometry" />
        </mxCell>
        <mxCell id="M2xENuGzF6R5AaJIFtvE-44" value="" style="endArrow=classic;html=1;rounded=0;entryX=0;entryY=0.5;entryDx=0;entryDy=0;exitX=1;exitY=0.3333333333333333;exitDx=0;exitDy=0;exitPerimeter=0;" edge="1" parent="1" source="M2xENuGzF6R5AaJIFtvE-41" target="M2xENuGzF6R5AaJIFtvE-42">
          <mxGeometry width="50" height="50" relative="1" as="geometry">
            <mxPoint x="231" y="396" as="sourcePoint" />
            <mxPoint x="532" y="636" as="targetPoint" />
          </mxGeometry>
        </mxCell>
        <mxCell id="M2xENuGzF6R5AaJIFtvE-45" value="&amp;lt;&amp;lt;extend&amp;gt;&amp;gt;" style="endArrow=open;endSize=12;dashed=1;html=1;rounded=0;exitX=0.5;exitY=0;exitDx=0;exitDy=0;entryX=0.5;entryY=1;entryDx=0;entryDy=0;" edge="1" parent="1" source="M2xENuGzF6R5AaJIFtvE-43" target="M2xENuGzF6R5AaJIFtvE-42">
          <mxGeometry width="160" relative="1" as="geometry">
            <mxPoint x="422" y="656" as="sourcePoint" />
            <mxPoint x="582" y="656" as="targetPoint" />
          </mxGeometry>
        </mxCell>
      </root>
    </mxGraphModel>
  </diagram>
</mxfile>
